<svg width="200" height="200" viewBox="0 0 200 200" fill="none" xmlns="http://www.w3.org/2000/svg">
<rect width="200" height="200" fill="url(#paint0_linear_1_17)"/>
<path d="M45.296 141.4C44.672 141.096 44.36 140.544 44.36 139.744C44.36 138.944 44.68 138.384 45.32 138.064C50.808 134.816 53.96 132.944 54.776 132.448C55.592 131.952 56.08 131.68 56.24 131.632C56.416 131.552 56.624 131.512 56.864 131.512C57.296 131.512 57.744 131.904 58.208 132.688C58.512 133.184 58.664 133.56 58.664 133.816C58.664 134.056 58.608 134.264 58.496 134.44C58.352 134.696 58.024 134.992 57.512 135.328C52.744 138.144 50.264 139.616 50.072 139.744L57.512 144.16C57.816 144.336 58.032 144.48 58.16 144.592C58.512 144.88 58.688 145.192 58.688 145.528C58.688 145.848 58.544 146.24 58.256 146.704C57.984 147.152 57.736 147.472 57.512 147.664C57.288 147.856 57.056 147.952 56.816 147.952C56.496 147.952 56.08 147.8 55.568 147.496L45.296 141.4ZM63.1989 139.96L63.2229 139.768C63.2229 139.08 63.4149 138.536 63.7989 138.136C64.1989 137.736 64.6309 137.472 65.0949 137.344C65.5589 137.216 65.9829 137 66.3669 136.696C66.7669 136.392 66.9669 135.984 66.9669 135.472C66.9669 134.944 66.8149 134.536 66.5109 134.248C66.2229 133.96 65.7829 133.816 65.1909 133.816C64.5989 133.816 64.1589 133.912 63.8709 134.104C63.5989 134.28 63.4309 134.464 63.3669 134.656L63.2949 134.944C63.1509 135.36 62.9829 135.68 62.7909 135.904C62.5989 136.112 62.3509 136.216 62.0469 136.216C61.7429 136.216 61.3429 136.12 60.8469 135.928C59.8869 135.56 59.4069 135.104 59.4069 134.56C59.4069 134.32 59.4549 134.08 59.5509 133.84C59.6469 133.584 59.7269 133.376 59.7909 133.216C59.8549 133.04 60.0229 132.744 60.2949 132.328C60.5829 131.912 60.9029 131.552 61.2549 131.248C61.6229 130.928 62.1349 130.64 62.7909 130.384C63.4469 130.112 64.1749 129.976 64.9749 129.976C66.6709 129.976 68.0549 130.52 69.1269 131.608C70.1989 132.696 70.7349 133.96 70.7349 135.4C70.7349 136.088 70.6069 136.728 70.3509 137.32C70.1109 137.896 69.8149 138.352 69.4629 138.688C68.7589 139.36 68.1029 139.808 67.4949 140.032L67.1109 140.152C67.1109 140.424 67.0949 140.632 67.0629 140.776C67.0469 140.92 66.9749 141.08 66.8469 141.256C66.7349 141.416 66.5349 141.536 66.2469 141.616C65.9749 141.68 65.6069 141.712 65.1429 141.712C64.6789 141.712 64.3029 141.672 64.0149 141.592C63.7429 141.512 63.5509 141.376 63.4389 141.184C63.3269 140.992 63.2549 140.824 63.2229 140.68C63.2069 140.52 63.1989 140.28 63.1989 139.96ZM63.1029 144.256C63.2309 144 63.4549 143.816 63.7749 143.704C64.1109 143.592 64.6309 143.536 65.3349 143.536C66.0389 143.536 66.5429 143.696 66.8469 144.016C67.1669 144.32 67.3269 144.92 67.3269 145.816C67.3269 146.456 67.2469 146.936 67.0869 147.256C66.9269 147.56 66.6789 147.768 66.3429 147.88C66.0229 147.976 65.5189 148.024 64.8309 148.024C64.1429 148.024 63.6149 147.856 63.2469 147.52C62.9749 147.248 62.8389 146.784 62.8389 146.128V145.744C62.8389 145.376 62.8469 145.096 62.8629 144.904C62.8949 144.712 62.9749 144.496 63.1029 144.256ZM80.7601 130.096C80.8881 129.856 81.1041 129.688 81.4081 129.592C81.7121 129.496 82.1121 129.448 82.6081 129.448C83.1201 129.448 83.5281 129.496 83.8321 129.592C84.1361 129.688 84.3441 129.856 84.4561 130.096C84.5841 130.336 84.6561 130.552 84.6721 130.744C84.7041 130.92 84.7201 131.192 84.7201 131.56V145.888C84.7201 146.256 84.7041 146.536 84.6721 146.728C84.6561 146.904 84.5841 147.104 84.4561 147.328C84.2161 147.76 83.5361 147.976 82.4161 147.976C81.3121 147.976 80.6961 147.584 80.5681 146.8C79.8961 147.568 78.9601 147.952 77.7601 147.952C76.3201 147.952 75.0081 147.328 73.8241 146.08C72.6401 144.816 72.0481 143.352 72.0481 141.688C72.0481 140.008 72.6401 138.536 73.8241 137.272C75.0241 136.008 76.3361 135.376 77.7601 135.376C78.9441 135.376 79.8641 135.776 80.5201 136.576V131.536C80.5201 131.168 80.5281 130.896 80.5441 130.72C80.5761 130.528 80.6481 130.32 80.7601 130.096ZM76.8721 143.128C77.2881 143.56 77.7921 143.776 78.3841 143.776C78.9761 143.776 79.4641 143.56 79.8481 143.128C80.2481 142.696 80.4481 142.224 80.4481 141.712C80.4481 141.184 80.2561 140.696 79.8721 140.248C79.5041 139.8 79.0001 139.576 78.3601 139.576C77.7201 139.576 77.2081 139.8 76.8241 140.248C76.4401 140.68 76.2481 141.16 76.2481 141.688C76.2481 142.216 76.4561 142.696 76.8721 143.128ZM94.8399 136.696C94.9359 135.8 95.5679 135.352 96.7359 135.352C97.3599 135.352 97.8239 135.4 98.1279 135.496C98.4319 135.592 98.6399 135.76 98.7519 136C98.8799 136.24 98.9519 136.456 98.9679 136.648C98.9999 136.824 99.0159 137.096 99.0159 137.464V145.864C99.0159 146.232 98.9999 146.512 98.9679 146.704C98.9519 146.88 98.8879 147.088 98.7759 147.328C98.5519 147.744 97.9999 147.952 97.1199 147.952C96.2559 147.952 95.6719 147.848 95.3679 147.64C95.0799 147.416 94.9119 147.096 94.8639 146.68C94.2719 147.528 93.2799 147.952 91.8879 147.952C90.5119 147.952 89.2319 147.32 88.0479 146.056C86.8639 144.792 86.2719 143.328 86.2719 141.664C86.2719 139.984 86.8639 138.52 88.0479 137.272C89.2479 136.008 90.5599 135.376 91.9839 135.376C92.5279 135.376 93.0239 135.472 93.4719 135.664C93.9199 135.856 94.2319 136.04 94.4079 136.216C94.5839 136.376 94.7279 136.536 94.8399 136.696ZM90.4719 141.688C90.4719 142.216 90.6799 142.696 91.0959 143.128C91.5119 143.544 92.0159 143.752 92.6079 143.752C93.1999 143.752 93.6879 143.536 94.0719 143.104C94.4719 142.672 94.6719 142.2 94.6719 141.688C94.6719 141.16 94.4799 140.672 94.0959 140.224C93.7279 139.776 93.2239 139.552 92.5839 139.552C91.9599 139.552 91.4479 139.776 91.0479 140.224C90.6639 140.672 90.4719 141.16 90.4719 141.688ZM113.321 135.64C114.153 136.136 114.569 136.664 114.569 137.224C114.569 137.544 114.409 137.984 114.089 138.544L109.121 147.064C108.961 147.336 108.705 147.584 108.353 147.808C108.001 148.016 107.649 148.12 107.297 148.12C106.961 148.12 106.633 148.04 106.313 147.88C106.009 147.704 105.793 147.528 105.665 147.352L105.449 147.088L100.457 138.544C100.137 138.016 99.9772 137.584 99.9772 137.248C99.9772 136.672 100.393 136.136 101.225 135.64C101.833 135.288 102.313 135.112 102.665 135.112C103.017 135.112 103.289 135.224 103.481 135.448C103.689 135.656 103.905 135.976 104.129 136.408L107.273 142.456L110.417 136.408C110.593 136.104 110.721 135.888 110.801 135.76C110.897 135.616 111.041 135.48 111.233 135.352C111.425 135.208 111.681 135.136 112.001 135.136C112.321 135.136 112.761 135.304 113.321 135.64ZM115.882 137.464C115.882 137.096 115.89 136.824 115.906 136.648C115.938 136.456 116.01 136.24 116.122 136C116.346 135.584 116.97 135.376 117.994 135.376C118.762 135.376 119.306 135.512 119.626 135.784C119.898 136.008 120.042 136.352 120.058 136.816C120.074 136.976 120.082 137.208 120.082 137.512V145.912C120.082 146.28 120.066 146.56 120.034 146.752C120.018 146.928 119.946 147.136 119.818 147.376C119.61 147.792 118.994 148 117.97 148C116.962 148 116.346 147.784 116.122 147.352C116.01 147.112 115.938 146.904 115.906 146.728C115.89 146.552 115.882 146.272 115.882 145.888V137.464ZM119.818 133.024C119.706 133.248 119.498 133.408 119.194 133.504C118.89 133.6 118.482 133.648 117.97 133.648C117.474 133.648 117.074 133.6 116.77 133.504C116.466 133.408 116.25 133.24 116.122 133C116.01 132.76 115.938 132.552 115.906 132.376C115.89 132.184 115.882 131.904 115.882 131.536C115.882 131.168 115.89 130.896 115.906 130.72C115.938 130.528 116.01 130.32 116.122 130.096C116.346 129.664 116.97 129.448 117.994 129.448C119.002 129.448 119.61 129.664 119.818 130.096C119.946 130.336 120.018 130.552 120.034 130.744C120.066 130.92 120.082 131.192 120.082 131.56C120.082 131.928 120.066 132.208 120.034 132.4C120.018 132.576 119.946 132.784 119.818 133.024ZM131.261 139.96L131.285 139.768C131.285 139.08 131.477 138.536 131.861 138.136C132.261 137.736 132.693 137.472 133.157 137.344C133.621 137.216 134.045 137 134.429 136.696C134.829 136.392 135.029 135.984 135.029 135.472C135.029 134.944 134.877 134.536 134.573 134.248C134.285 133.96 133.845 133.816 133.253 133.816C132.661 133.816 132.221 133.912 131.933 134.104C131.661 134.28 131.493 134.464 131.429 134.656L131.357 134.944C131.213 135.36 131.045 135.68 130.853 135.904C130.661 136.112 130.413 136.216 130.109 136.216C129.805 136.216 129.405 136.12 128.909 135.928C127.949 135.56 127.469 135.104 127.469 134.56C127.469 134.32 127.517 134.08 127.613 133.84C127.709 133.584 127.789 133.376 127.853 133.216C127.917 133.04 128.085 132.744 128.357 132.328C128.645 131.912 128.965 131.552 129.317 131.248C129.685 130.928 130.197 130.64 130.853 130.384C131.509 130.112 132.237 129.976 133.037 129.976C134.733 129.976 136.117 130.52 137.189 131.608C138.261 132.696 138.797 133.96 138.797 135.4C138.797 136.088 138.669 136.728 138.413 137.32C138.173 137.896 137.877 138.352 137.525 138.688C136.821 139.36 136.165 139.808 135.557 140.032L135.173 140.152C135.173 140.424 135.157 140.632 135.125 140.776C135.109 140.92 135.037 141.08 134.909 141.256C134.797 141.416 134.597 141.536 134.309 141.616C134.037 141.68 133.669 141.712 133.205 141.712C132.741 141.712 132.365 141.672 132.077 141.592C131.805 141.512 131.613 141.376 131.501 141.184C131.389 140.992 131.317 140.824 131.285 140.68C131.269 140.52 131.261 140.28 131.261 139.96ZM131.165 144.256C131.293 144 131.517 143.816 131.837 143.704C132.173 143.592 132.693 143.536 133.397 143.536C134.101 143.536 134.605 143.696 134.909 144.016C135.229 144.32 135.389 144.92 135.389 145.816C135.389 146.456 135.309 146.936 135.149 147.256C134.989 147.56 134.741 147.768 134.405 147.88C134.085 147.976 133.581 148.024 132.893 148.024C132.205 148.024 131.677 147.856 131.309 147.52C131.037 147.248 130.901 146.784 130.901 146.128V145.744C130.901 145.376 130.909 145.096 130.925 144.904C130.957 144.712 131.037 144.496 131.165 144.256ZM153.095 138.064C153.735 138.384 154.055 138.944 154.055 139.744C154.055 140.544 153.743 141.096 153.119 141.4L142.871 147.496C142.055 148.024 141.399 148.08 140.903 147.664C140.679 147.472 140.447 147.184 140.207 146.8C139.887 146.272 139.727 145.888 139.727 145.648C139.727 145.408 139.775 145.2 139.871 145.024C140.047 144.752 140.391 144.464 140.903 144.16L148.367 139.744L140.927 135.328C140.639 135.152 140.423 135.008 140.279 134.896C139.927 134.592 139.751 134.264 139.751 133.912C139.751 133.592 139.887 133.208 140.159 132.76C140.655 131.928 141.119 131.512 141.551 131.512C141.935 131.512 142.367 131.664 142.847 131.968L153.095 138.064Z" fill="white"/>
<path d="M38.48 98.44C39.2053 99.1653 39.568 100.659 39.568 102.92V103.176C39.568 104.2 39.5253 104.968 39.44 105.48C39.3973 105.949 39.184 106.525 38.8 107.208C38.16 108.445 36.5387 109.064 33.936 109.064C31.376 109.064 29.6693 108.659 28.816 107.848C28.0053 107.037 27.6 105.501 27.6 103.24V102.984C27.6 102.003 27.6213 101.256 27.664 100.744C27.7493 100.232 27.9627 99.656 28.304 99.016C28.944 97.736 30.544 97.096 33.104 97.096C35.7067 97.096 37.4987 97.544 38.48 98.44ZM66.3395 61.256C66.6808 60.616 67.2568 60.168 68.0675 59.912C68.8782 59.656 69.9448 59.528 71.2675 59.528C72.6328 59.528 73.7208 59.656 74.5315 59.912C75.3422 60.168 75.8968 60.616 76.1955 61.256C76.5368 61.896 76.7288 62.472 76.7715 62.984C76.8568 63.4533 76.8995 64.1787 76.8995 65.16V103.368C76.8995 104.349 76.8568 105.096 76.7715 105.608C76.7288 106.077 76.5368 106.611 76.1955 107.208C75.5555 108.36 73.7422 108.936 70.7555 108.936C67.8115 108.936 66.1688 107.891 65.8275 105.8C64.0355 107.848 61.5395 108.872 58.3395 108.872C54.4995 108.872 51.0008 107.208 47.8435 103.88C44.6862 100.509 43.1075 96.6053 43.1075 92.168C43.1075 87.688 44.6862 83.7627 47.8435 80.392C51.0435 77.0213 54.5422 75.336 58.3395 75.336C61.4968 75.336 63.9502 76.4027 65.6995 78.536V65.096C65.6995 64.1147 65.7208 63.3893 65.7635 62.92C65.8488 62.408 66.0408 61.8533 66.3395 61.256ZM55.9715 96.008C57.0808 97.16 58.4248 97.736 60.0035 97.736C61.5822 97.736 62.8835 97.16 63.9075 96.008C64.9742 94.856 65.5075 93.5973 65.5075 92.232C65.5075 90.824 64.9955 89.5227 63.9715 88.328C62.9902 87.1333 61.6462 86.536 59.9395 86.536C58.2328 86.536 56.8675 87.1333 55.8435 88.328C54.8195 89.48 54.3075 90.76 54.3075 92.168C54.3075 93.576 54.8622 94.856 55.9715 96.008ZM103.886 78.856C104.142 76.4667 105.827 75.272 108.942 75.272C110.606 75.272 111.843 75.4 112.654 75.656C113.464 75.912 114.019 76.36 114.318 77C114.659 77.64 114.851 78.216 114.894 78.728C114.979 79.1973 115.022 79.9227 115.022 80.904V103.304C115.022 104.285 114.979 105.032 114.894 105.544C114.851 106.013 114.68 106.568 114.382 107.208C113.784 108.317 112.312 108.872 109.966 108.872C107.662 108.872 106.104 108.595 105.294 108.04C104.526 107.443 104.078 106.589 103.95 105.48C102.371 107.741 99.7255 108.872 96.0135 108.872C92.3442 108.872 88.9308 107.187 85.7735 103.816C82.6162 100.445 81.0375 96.5413 81.0375 92.104C81.0375 87.624 82.6162 83.72 85.7735 80.392C88.9735 77.0213 92.4722 75.336 96.2695 75.336C97.7202 75.336 99.0428 75.592 100.238 76.104C101.432 76.616 102.264 77.1067 102.734 77.576C103.203 78.0027 103.587 78.4293 103.886 78.856ZM92.2375 92.168C92.2375 93.576 92.7922 94.856 93.9015 96.008C95.0108 97.1173 96.3548 97.672 97.9335 97.672C99.5122 97.672 100.814 97.096 101.838 95.944C102.904 94.792 103.438 93.5333 103.438 92.168C103.438 90.76 102.926 89.4587 101.902 88.264C100.92 87.0693 99.5762 86.472 97.8695 86.472C96.2055 86.472 94.8402 87.0693 93.7735 88.264C92.7495 89.4587 92.2375 90.76 92.2375 92.168ZM153.169 76.04C155.388 77.3627 156.497 78.7707 156.497 80.264C156.497 81.1173 156.07 82.2907 155.217 83.784L141.969 106.504C141.542 107.229 140.86 107.891 139.921 108.488C138.982 109.043 138.044 109.32 137.105 109.32C136.209 109.32 135.334 109.107 134.481 108.68C133.67 108.211 133.094 107.741 132.753 107.272L132.177 106.568L118.865 83.784C118.012 82.376 117.585 81.224 117.585 80.328C117.585 78.792 118.694 77.3627 120.913 76.04C122.534 75.1013 123.814 74.632 124.753 74.632C125.692 74.632 126.417 74.9307 126.929 75.528C127.484 76.0827 128.06 76.936 128.657 78.088L137.041 94.216L145.425 78.088C145.894 77.2773 146.236 76.7013 146.449 76.36C146.705 75.976 147.089 75.6133 147.601 75.272C148.113 74.888 148.796 74.696 149.649 74.696C150.502 74.696 151.676 75.144 153.169 76.04ZM159.998 80.904C159.998 79.9227 160.019 79.1973 160.062 78.728C160.147 78.216 160.339 77.64 160.638 77C161.235 75.8907 162.899 75.336 165.63 75.336C167.678 75.336 169.128 75.6987 169.982 76.424C170.707 77.0213 171.091 77.9387 171.134 79.176C171.176 79.6027 171.198 80.2213 171.198 81.032V103.432C171.198 104.413 171.155 105.16 171.07 105.672C171.027 106.141 170.835 106.696 170.494 107.336C169.939 108.445 168.296 109 165.566 109C162.878 109 161.235 108.424 160.638 107.272C160.339 106.632 160.147 106.077 160.062 105.608C160.019 105.139 159.998 104.392 159.998 103.368V80.904ZM170.494 69.064C170.195 69.6613 169.64 70.088 168.83 70.344C168.019 70.6 166.931 70.728 165.566 70.728C164.243 70.728 163.176 70.6 162.366 70.344C161.555 70.088 160.979 69.64 160.638 69C160.339 68.36 160.147 67.8053 160.062 67.336C160.019 66.824 159.998 66.0773 159.998 65.096C159.998 64.1147 160.019 63.3893 160.062 62.92C160.147 62.408 160.339 61.8533 160.638 61.256C161.235 60.104 162.899 59.528 165.63 59.528C168.318 59.528 169.939 60.104 170.494 61.256C170.835 61.896 171.027 62.472 171.07 62.984C171.155 63.4533 171.198 64.1787 171.198 65.16C171.198 66.1413 171.155 66.888 171.07 67.4C171.027 67.8693 170.835 68.424 170.494 69.064Z" fill="white"/>
<defs>
<linearGradient id="paint0_linear_1_17" x1="-25" y1="230" x2="203" y2="-5" gradientUnits="userSpaceOnUse">
<stop stop-color="#00D1FF"/>
<stop offset="1" stop-color="#EE82EE"/>
</linearGradient>
</defs>
</svg>
